<svg width="47" height="47" viewBox="0 0 47 47" fill="none" xmlns="http://www.w3.org/2000/svg">
<g filter="url(#filter0_d_0_77)">
<path d="M22.4533 22.4166C21.9167 22.9425 21.3887 23.4723 20.8444 23.9836C20.7009 24.1186 20.5049 24.1939 20.3329 24.2969C20.3099 24.2749 20.2869 24.2536 20.2645 24.2316C20.2782 23.9656 20.2886 23.699 20.3061 23.4329C20.3581 22.6567 20.4036 21.88 20.4759 21.106C20.4885 20.9699 20.5914 20.8164 20.696 20.7196C22.565 18.9855 24.4407 17.2593 26.3135 15.5292C26.4077 15.442 26.4877 15.3385 26.5977 15.2165C26.3212 15.0826 26.1536 15.2041 25.9871 15.311C24.5797 16.2143 23.1735 17.1193 21.7672 18.0237C20.8011 18.6447 19.8329 19.2628 18.8713 19.8911C18.7251 19.9867 18.6019 19.998 18.4414 19.9457C17.5039 19.6391 16.562 19.3472 15.625 19.0395C15.3632 18.9535 15.0089 18.9057 15.0002 18.5491C14.9914 18.1942 15.3287 18.0817 15.5971 17.9742C16.9891 17.4174 18.3845 16.8701 19.7798 16.3212C22.4933 15.2536 25.2073 14.1866 27.9219 13.1208C28.015 13.0842 28.1097 13.0476 28.2067 13.0246C28.636 12.9222 28.9575 13.1466 28.9952 13.5972C29.0111 13.7895 28.9854 13.9909 28.946 14.1816C28.2543 17.5333 27.5577 20.8839 26.8606 24.2344C26.836 24.3526 26.7993 24.4707 26.7516 24.5809C26.5934 24.9465 26.3157 25.0821 25.9504 24.9516C25.7905 24.8948 25.6383 24.798 25.4998 24.6945C24.5327 23.9735 23.5705 23.2456 22.6061 22.5206C22.5607 22.488 22.5147 22.4587 22.4533 22.4166Z" fill="white"/>
<circle cx="23.948" cy="19.0517" r="18.5515" stroke="white"/>
</g>
<defs>
<filter id="filter0_d_0_77" x="0.896484" y="0.00012207" width="46.1031" height="46.1031" filterUnits="userSpaceOnUse" color-interpolation-filters="sRGB">
<feFlood flood-opacity="0" result="BackgroundImageFix"/>
<feColorMatrix in="SourceAlpha" type="matrix" values="0 0 0 0 0 0 0 0 0 0 0 0 0 0 0 0 0 0 127 0" result="hardAlpha"/>
<feOffset dy="4"/>
<feGaussianBlur stdDeviation="2"/>
<feComposite in2="hardAlpha" operator="out"/>
<feColorMatrix type="matrix" values="0 0 0 0 0 0 0 0 0 0 0 0 0 0 0 0 0 0 0.25 0"/>
<feBlend mode="normal" in2="BackgroundImageFix" result="effect1_dropShadow_0_77"/>
<feBlend mode="normal" in="SourceGraphic" in2="effect1_dropShadow_0_77" result="shape"/>
</filter>
</defs>
</svg>
