<svg width="47" height="47" viewBox="0 0 47 47" fill="none" xmlns="http://www.w3.org/2000/svg">
<g filter="url(#filter0_d_0_74)">
<circle cx="23.0515" cy="19.0517" r="18.5515" stroke="white"/>
<path d="M16.4931 25.6795C16.568 25.4463 16.6281 25.2508 16.6931 25.0574C16.8837 24.4894 17.07 23.9192 17.2721 23.355C17.3372 23.1736 17.3104 23.0409 17.2077 22.8787C15.7425 20.5656 15.5966 18.1646 16.846 15.7298C18.1916 13.107 21.1919 11.6171 24.0364 12.0857C27.0843 12.5882 29.4148 14.8734 29.9037 17.8391C30.5456 21.7306 27.9108 25.354 24.0037 25.9237C22.3719 26.1612 20.8351 25.8439 19.4196 24.9891C19.241 24.8815 19.093 24.8531 18.8914 24.922C18.1954 25.1601 17.4918 25.3775 16.7908 25.6014C16.7073 25.6282 16.6215 25.6462 16.4931 25.6795ZM18.9438 17.128C18.9635 17.2902 18.9739 17.4535 19.0039 17.6136C19.1465 18.3689 19.5682 18.9828 20.0075 19.5896C21.2099 21.2495 22.7543 22.4085 24.7854 22.8449C25.0635 22.9044 25.3749 22.9317 25.6475 22.8705C26.7745 22.6176 27.2126 22.0392 27.2154 21.1178C27.2159 21.013 27.1422 20.8551 27.0569 20.8109C26.5243 20.5356 25.9802 20.2833 25.4372 20.0282C25.2372 19.9343 25.0635 19.9856 24.9291 20.1593C24.7903 20.3395 24.6598 20.5258 24.5188 20.7044C24.2484 21.0468 24.1266 21.0774 23.725 20.9065C22.6051 20.4297 21.7698 19.6333 21.1372 18.606C21.022 18.4181 21.0416 18.2701 21.1826 18.1155C21.3295 17.9544 21.4929 17.8003 21.6049 17.6168C21.6819 17.4907 21.7518 17.2935 21.707 17.1717C21.494 16.5927 21.2443 16.0264 20.9968 15.4605C20.9602 15.377 20.8739 15.2699 20.7963 15.2568C20.3762 15.1847 19.9594 15.1683 19.6218 15.5069C19.176 15.9543 18.9564 16.495 18.9438 17.128Z" fill="white"/>
</g>
<defs>
<filter id="filter0_d_0_74" x="0" y="0.00012207" width="46.1031" height="46.1031" filterUnits="userSpaceOnUse" color-interpolation-filters="sRGB">
<feFlood flood-opacity="0" result="BackgroundImageFix"/>
<feColorMatrix in="SourceAlpha" type="matrix" values="0 0 0 0 0 0 0 0 0 0 0 0 0 0 0 0 0 0 127 0" result="hardAlpha"/>
<feOffset dy="4"/>
<feGaussianBlur stdDeviation="2"/>
<feComposite in2="hardAlpha" operator="out"/>
<feColorMatrix type="matrix" values="0 0 0 0 0 0 0 0 0 0 0 0 0 0 0 0 0 0 0.25 0"/>
<feBlend mode="normal" in2="BackgroundImageFix" result="effect1_dropShadow_0_74"/>
<feBlend mode="normal" in="SourceGraphic" in2="effect1_dropShadow_0_74" result="shape"/>
</filter>
</defs>
</svg>
